<svg width="40" height="40" viewBox="0 0 40 40" fill="none" xmlns="http://www.w3.org/2000/svg">
<path fill-rule="evenodd" clip-rule="evenodd" d="M20 40C31.0457 40 40 31.0457 40 20C40 8.9543 31.0457 0 20 0C8.9543 0 0 8.9543 0 20C0 31.0457 8.9543 40 20 40Z" fill="#D44527"/>
<path d="M19.056 25H21.216L16.656 13.8H14.576L10.016 25H12.176L13.152 22.52H18.08L19.056 25ZM14.592 18.888C14.992 17.88 15.344 16.76 15.584 15.96H15.648C15.888 16.76 16.208 17.8 16.64 18.888L17.376 20.76H13.856L14.592 18.888Z" fill="white"/>
<path d="M28.66 25H30.01L27.16 18H25.86L23.01 25H24.36L24.97 23.45H28.05L28.66 25ZM25.87 21.18C26.12 20.55 26.34 19.85 26.49 19.35H26.53C26.68 19.85 26.88 20.5 27.15 21.18L27.61 22.35H25.41L25.87 21.18Z" fill="white"/>
</svg>
